<svg width="45" height="24" viewBox="0 0 45 24" fill="none" xmlns="http://www.w3.org/2000/svg">
<path d="M4.08808 12.144C3.40008 12.144 2.73608 12.064 2.09608 11.904C1.46408 11.744 0.940078 11.528 0.524078 11.256L1.23208 9.264C1.48808 9.416 1.77608 9.552 2.09608 9.672C2.41608 9.784 2.74808 9.876 3.09208 9.948C3.43608 10.012 3.77608 10.044 4.11208 10.044C4.58408 10.044 4.90008 9.996 5.06008 9.9C5.22008 9.796 5.30008 9.672 5.30008 9.528C5.30008 9.392 5.24808 9.284 5.14408 9.204C5.04808 9.124 4.84408 9.052 4.53208 8.988L3.00808 8.676C2.23208 8.516 1.64808 8.232 1.25608 7.824C0.872078 7.416 0.680078 6.888 0.680078 6.24C0.680078 5.664 0.836078 5.164 1.14808 4.74C1.46008 4.316 1.90008 3.988 2.46808 3.756C3.03608 3.516 3.70008 3.396 4.46008 3.396C5.06008 3.396 5.62808 3.476 6.16408 3.636C6.70008 3.796 7.13608 4.012 7.47208 4.284L6.76408 6.156C6.46008 5.948 6.10808 5.788 5.70808 5.676C5.31608 5.556 4.88008 5.496 4.40008 5.496C4.00008 5.496 3.70008 5.544 3.50008 5.64C3.30808 5.736 3.21208 5.876 3.21208 6.06C3.21208 6.172 3.26808 6.276 3.38008 6.372C3.49208 6.468 3.70808 6.548 4.02808 6.612L5.52808 6.912C6.28808 7.064 6.86008 7.344 7.24408 7.752C7.63608 8.16 7.83208 8.684 7.83208 9.324C7.83208 9.892 7.67608 10.388 7.36408 10.812C7.05208 11.236 6.61608 11.564 6.05608 11.796C5.49608 12.028 4.84008 12.144 4.08808 12.144ZM8.99092 12V3.54H11.5829V6.66H14.4749V3.54H17.0669V12H14.4749V8.772H11.5829V12H8.99092ZM18.2557 7.764C18.2557 6.892 18.4317 6.128 18.7837 5.472C19.1437 4.816 19.6517 4.308 20.3077 3.948C20.9637 3.58 21.7397 3.396 22.6357 3.396C23.5397 3.396 24.3197 3.58 24.9757 3.948C25.6317 4.308 26.1397 4.816 26.4997 5.472C26.8597 6.128 27.0397 6.892 27.0397 7.764C27.0397 8.636 26.8597 9.4 26.4997 10.056C26.1397 10.712 25.6317 11.224 24.9757 11.592C24.3197 11.96 23.5397 12.144 22.6357 12.144C21.7397 12.144 20.9637 11.96 20.3077 11.592C19.6517 11.224 19.1437 10.712 18.7837 10.056C18.4317 9.392 18.2557 8.628 18.2557 7.764ZM20.9677 7.764C20.9677 8.468 21.0997 9.016 21.3637 9.408C21.6357 9.8 22.0597 9.996 22.6357 9.996C23.2117 9.996 23.6357 9.8 23.9077 9.408C24.1877 9.008 24.3277 8.46 24.3277 7.764C24.3277 7.068 24.1877 6.524 23.9077 6.132C23.6357 5.74 23.2117 5.544 22.6357 5.544C22.0597 5.544 21.6357 5.74 21.3637 6.132C21.0997 6.516 20.9677 7.06 20.9677 7.764ZM28.2331 12V3.54H32.6011C33.6011 3.54 34.3531 3.788 34.8571 4.284C35.3611 4.772 35.6131 5.432 35.6131 6.264C35.6131 7.088 35.3611 7.748 34.8571 8.244C34.3531 8.74 33.6011 8.988 32.6011 8.988H30.8251V12H28.2331ZM30.8251 7.02H32.2531C32.5571 7.02 32.7811 6.956 32.9251 6.828C33.0691 6.692 33.1411 6.504 33.1411 6.264C33.1411 6.024 33.0691 5.84 32.9251 5.712C32.7811 5.576 32.5571 5.508 32.2531 5.508H30.8251V7.02ZM38.6051 12V7.932L39.1091 9.324L35.2451 3.54H38.2211L40.1771 6.684H39.6851L41.6531 3.54H44.5451L40.6811 9.324L41.1971 7.932V12H38.6051Z" fill="white"/>
<circle cx="22.6" cy="7.5" r="5" fill="white"/>
<path d="M8.08419 21L12.1042 12.54H14.2042L18.2482 21H15.6562L14.6482 18.708L15.6202 19.428H10.7122L11.6722 18.708L10.6642 21H8.08419ZM13.1482 15.18L11.9122 18.144L11.5522 17.472H14.7802L14.4562 18.144L13.2082 15.18H13.1482ZM18.5398 21V12.54H22.9078C23.9078 12.54 24.6598 12.788 25.1638 13.284C25.6678 13.772 25.9198 14.432 25.9198 15.264C25.9198 16.088 25.6678 16.748 25.1638 17.244C24.6598 17.74 23.9078 17.988 22.9078 17.988H21.1318V21H18.5398ZM21.1318 16.02H22.5598C22.8638 16.02 23.0878 15.956 23.2318 15.828C23.3758 15.692 23.4478 15.504 23.4478 15.264C23.4478 15.024 23.3758 14.84 23.2318 14.712C23.0878 14.576 22.8638 14.508 22.5598 14.508H21.1318V16.02ZM26.8718 21V12.54H31.2398C32.2398 12.54 32.9918 12.788 33.4958 13.284C33.9998 13.772 34.2518 14.432 34.2518 15.264C34.2518 16.088 33.9998 16.748 33.4958 17.244C32.9918 17.74 32.2398 17.988 31.2398 17.988H29.4638V21H26.8718ZM29.4638 16.02H30.8918C31.1958 16.02 31.4198 15.956 31.5638 15.828C31.7078 15.692 31.7798 15.504 31.7798 15.264C31.7798 15.024 31.7078 14.84 31.5638 14.712C31.4198 14.576 31.1958 14.508 30.8918 14.508H29.4638V16.02Z" fill="white"/>
</svg>
